<svg xmlns="http://www.w3.org/2000/svg" viewBox="27 52 40 40" fill="white"><path d="M48.7 66.4c-.3.2-1 .9-1 1.4 0 .4.4 1 1.1 1.9l9 12.2c3.7 5 5.8 3.7 5.8 4.9 0 .3 0 .6-.6.6-1 0-2.3-.2-3.5-.2-.9 0-1.8.2-3.2.2-.9 0-1.4-.1-2.3-1.4l-9.4-12.9c-.6-.8-.9-1.3-1.2-1.3-.4 0-1.2.8-2.2 2-.7.8-.6 1.2-.6 2.3v6.2c0 4.4 4.6 2.8 4.6 4.5 0 .4-.2.6-1.3.6-1.3 0-2.6-.2-5.2-.2-2.3 0-4.7.2-6.2.2-.9 0-1.5 0-1.5-.4 0-2.4 3.8.7 3.8-6.4V60c0-5.7-5-3.3-5-5.4 0-.5.4-.7 1-.7.9 0 2.5.2 5.7.2 2.6 0 5.6-.2 6.6-.2.4 0 1 0 1 .6 0 1.9-3.4-.7-3.4 4.5v10.8c0 .5 0 1.1.2 1.1.3 0 .6-.2 1.2-.8l6.2-6.1c1.3-1.3 5.9-5.1 5.9-7.3 0-1.5-2.9-.8-2.9-1.9 0-.8.5-.9 1.1-.9.5 0 3.7.2 5.1.2 1.2 0 2.4-.2 4.4-.2.4 0 1.2 0 1.2.8 0 1.3-1.5-.1-6.1 4l-8.3 7.7z"/></svg>